<svg width="726" height="705" viewBox="0 0 726 705" fill="none" xmlns="http://www.w3.org/2000/svg">
<g clip-path="url(#clip0_8_107)">
<path d="M338.318 704.675C521.156 704.675 669.376 556.456 669.376 373.618C669.376 190.78 521.156 42.5605 338.318 42.5605C155.481 42.5605 7.26123 190.78 7.26123 373.618C7.26123 556.456 155.481 704.675 338.318 704.675Z" fill="#35E1FF"/>
<g opacity="0.2">
<path d="M677.751 278.91C658.542 233.451 630.753 192.499 596.421 158.08L577.813 176.688C577.691 176.796 577.568 176.908 577.453 177.023C576.797 177.679 575.857 178.868 575.568 180.475L563.623 192.42V128.796C518.164 92.6515 464.259 66.6861 405.337 54.3412H353.518V47.1707C348.178 46.7995 342.813 46.5257 337.415 46.3779V54.3412H282.202V48.8462C276.8 49.4768 271.432 50.219 266.099 51.073V54.3412H248.37C204.814 63.4684 163.999 80.04 127.307 102.665V560.796C127.307 574.55 138.498 585.742 152.252 585.742H538.674C552.432 585.742 563.62 574.55 563.62 560.796V391.614L675.247 279.987C676.129 279.811 676.983 279.447 677.747 278.91H677.751Z" fill="#6D4C41"/>
</g>
<path d="M522.578 43.3657H136.156C126.017 43.3657 117.797 51.5853 117.797 61.7246V543.23C117.797 553.37 126.017 561.589 136.156 561.589H522.578C532.717 561.589 540.937 553.37 540.937 543.23V61.7246C540.937 51.5853 532.717 43.3657 522.578 43.3657Z" fill="white"/>
<path d="M522.575 568.179H136.153C122.399 568.179 111.207 556.988 111.207 543.234V61.7245C111.207 47.9707 122.395 36.7788 136.153 36.7788H522.575C536.328 36.7788 547.52 47.9707 547.52 61.7245V543.234C547.52 556.988 536.332 568.179 522.575 568.179ZM136.153 49.9525C129.663 49.9525 124.381 55.2349 124.381 61.7245V543.234C124.381 549.723 129.66 555.006 136.153 555.006H522.575C529.064 555.006 534.347 549.723 534.347 543.234V61.7245C534.347 55.2349 529.068 49.9525 522.575 49.9525H136.153Z" fill="#3F3937"/>
<g opacity="0.2">
<path d="M540.933 199.01L381.051 358.892C381.012 358.932 380.983 358.982 380.947 359.022C380.723 359.26 380.518 359.512 380.331 359.779C380.273 359.865 380.208 359.945 380.154 360.031C379.952 360.348 379.772 360.68 379.628 361.029C379.599 361.101 379.581 361.173 379.556 361.245C379.448 361.53 379.361 361.822 379.296 362.125C379.271 362.243 379.246 362.362 379.228 362.485C379.21 362.586 379.185 362.679 379.17 362.784L367.744 459.922C367.254 464.069 368.699 468.112 371.701 471.016C374.209 473.441 377.477 474.753 380.896 474.753C381.566 474.753 382.248 474.703 382.925 474.602L476.986 460.351C477.05 460.34 477.108 460.322 477.173 460.307C477.277 460.289 477.375 460.264 477.476 460.239C477.775 460.17 478.063 460.084 478.344 459.976C478.43 459.943 478.517 459.915 478.6 459.879C478.949 459.727 479.284 459.551 479.602 459.342C479.659 459.302 479.713 459.259 479.771 459.219C480.041 459.032 480.29 458.823 480.528 458.596C480.567 458.556 480.614 458.531 480.654 458.491L509.74 429.405C481.133 498.492 425.278 560.93 316.797 560.93H527.399C531.507 559.813 535.038 557.312 537.463 553.954L539.751 545.785L539.283 399.866L540.941 398.208V199.014L540.933 199.01Z" fill="#3F3937"/>
</g>
<path d="M186.736 101.335C182.29 101.335 178.686 97.7322 178.686 93.2857V5.32908C178.686 0.8826 182.29 -2.7207 186.736 -2.7207C191.183 -2.7207 194.786 0.8826 194.786 5.32908V93.2857C194.786 97.7322 191.183 101.335 186.736 101.335Z" fill="#3F3937"/>
<path d="M258.049 101.335C253.602 101.335 249.999 97.7322 249.999 93.2857V5.32908C249.999 0.8826 253.602 -2.7207 258.049 -2.7207C262.495 -2.7207 266.098 0.8826 266.098 5.32908V93.2857C266.098 97.7322 262.495 101.335 258.049 101.335Z" fill="#3F3937"/>
<path d="M329.365 101.335C324.919 101.335 321.316 97.7322 321.316 93.2857V5.32908C321.316 0.8826 324.919 -2.7207 329.365 -2.7207C333.812 -2.7207 337.415 0.8826 337.415 5.32908V93.2857C337.415 97.7322 333.812 101.335 329.365 101.335Z" fill="#3F3937"/>
<path d="M400.682 101.335C396.236 101.335 392.632 97.7322 392.632 93.2857V5.32908C392.632 0.8826 396.236 -2.7207 400.682 -2.7207C405.129 -2.7207 408.732 0.8826 408.732 5.32908V93.2857C408.732 97.7322 405.129 101.335 400.682 101.335Z" fill="#3F3937"/>
<path d="M471.995 101.335C467.549 101.335 463.945 97.7322 463.945 93.2857V5.32908C463.945 0.8826 467.549 -2.7207 471.995 -2.7207C476.442 -2.7207 480.045 0.8826 480.045 5.32908V93.2857C480.045 97.7322 476.442 101.335 471.995 101.335Z" fill="#3F3937"/>
<rect x="172" y="160" width="312" height="35" rx="17.5" fill="#EAEAEA"/>
<rect x="217" y="211" width="222" height="35" rx="17.5" fill="#EAEAEA"/>
<rect x="217" y="313" width="222" height="35" rx="17.5" fill="#EAEAEA"/>
<rect x="217" y="415" width="222" height="35" rx="17.5" fill="#EAEAEA"/>
<rect x="172" y="262" width="312" height="35" rx="17.5" fill="#EAEAEA"/>
<rect x="172" y="364" width="312" height="35" rx="17.5" fill="#EAEAEA"/>
<path d="M662.434 249.819L572.153 159.538L387.172 344.52L477.452 434.8L662.434 249.819Z" fill="#FDD835"/>
<path d="M477.454 441.39C475.768 441.39 474.081 440.748 472.795 439.462L382.514 349.181C381.278 347.945 380.587 346.27 380.587 344.522C380.587 342.775 381.282 341.099 382.514 339.863L567.497 154.88C570.07 152.308 574.242 152.308 576.812 154.88L667.092 245.161C668.328 246.397 669.02 248.073 669.02 249.82C669.02 251.568 668.325 253.243 667.092 254.479L482.11 439.462C480.823 440.748 479.137 441.39 477.451 441.39H477.454ZM396.488 344.522L477.454 425.488L653.119 249.824L572.152 168.858L396.488 344.522Z" fill="#3F3937"/>
<g opacity="0.2">
<path d="M572.156 159.54L569.958 161.734L631.697 223.473L448.909 406.258L477.454 434.803L662.437 249.82L572.156 159.54Z" fill="#3F3937"/>
</g>
<g opacity="0.5">
<path d="M405.272 351.841L580.206 176.907L572.156 168.854L396.488 344.522L477.454 425.488L478.185 424.753L405.272 351.841Z" fill="white"/>
</g>
<path d="M387.173 344.522L375.747 441.657C375.232 446.042 379.03 449.717 383.397 449.054L477.457 434.803L387.177 344.522H387.173Z" fill="#FAD7A0"/>
<path d="M382.355 455.72C378.94 455.72 375.671 454.409 373.16 451.984C370.158 449.079 368.717 445.037 369.203 440.889L380.63 343.755C380.925 341.247 382.626 339.128 385.011 338.303C387.396 337.474 390.045 338.083 391.829 339.867L482.109 430.148C483.868 431.906 484.484 434.5 483.709 436.864C482.934 439.224 480.895 440.947 478.438 441.322L384.377 455.573C383.699 455.677 383.022 455.728 382.352 455.728L382.355 455.72ZM392.128 358.791L382.291 442.424L463.567 430.227L392.131 358.791H392.128Z" fill="#3F3937"/>
<g opacity="0.2">
<path d="M387.173 344.522L387.018 345.83L451.103 409.915L376.626 431.11L375.743 441.653C375.228 446.038 379.026 449.713 383.393 449.05L477.454 434.799L387.173 344.519V344.522Z" fill="#3F3937"/>
</g>
<g opacity="0.5">
<path d="M401.91 368.574L392.127 358.791L382.287 442.424L382.409 442.539L393.403 440.874L401.91 368.574Z" fill="white"/>
</g>
<path d="M566.023 164.126L594.821 135.329C620.181 109.969 661.298 109.969 686.658 135.329C712.018 160.689 712.018 201.806 686.658 227.166L657.86 255.964C657.86 255.964 564.758 162.862 566.023 164.126Z" fill="#FF6CA8"/>
<path d="M657.86 262.554C656.113 262.554 654.437 261.859 653.201 260.627C653.201 260.627 563.072 170.497 561.378 168.804C561.371 168.8 561.368 168.793 561.36 168.786C558.788 166.213 558.777 162.029 561.35 159.457C561.461 159.345 561.587 159.226 561.732 159.1L590.158 130.674C618.048 102.788 663.424 102.788 691.313 130.674C719.203 158.563 719.203 203.939 691.313 231.829L662.516 260.627C661.28 261.863 659.604 262.554 657.857 262.554H657.86ZM575.338 164.13L657.86 246.653L681.999 222.514C704.75 199.763 704.75 162.743 681.999 139.992C659.248 117.24 622.227 117.24 599.476 139.992L575.338 164.13Z" fill="#3F3937"/>
<g opacity="0.2">
<path d="M686.658 135.329C682.896 131.567 678.781 128.375 674.425 125.73C684.121 149.252 679.423 177.315 660.307 196.427L631.51 225.224C631.51 225.224 595.181 188.896 568.218 161.932L566.023 164.127C564.758 162.862 657.861 255.964 657.861 255.964L686.658 227.166C712.018 201.806 712.018 160.689 686.658 135.329Z" fill="#3F3937"/>
</g>
<path d="M382.481 406.225L417.614 442.824L387.605 447.948L372.969 442.093L382.481 406.225Z" fill="#3F3937"/>
<g opacity="0.5">
<path d="M645.944 234.733C643.811 232.6 641.598 230.388 639.343 228.132C641.663 230.452 643.865 232.654 645.944 234.733Z" fill="white"/>
</g>
<g opacity="0.5">
<path d="M651.453 240.243C650.012 238.801 648.524 237.313 646.989 235.778C648.571 237.36 650.063 238.852 651.453 240.243Z" fill="white"/>
</g>
<g opacity="0.5">
<path d="M654.924 243.713C653.81 242.599 652.646 241.432 651.454 240.243C652.704 241.493 653.853 242.642 654.924 243.713Z" fill="white"/>
</g>
<g opacity="0.5">
<path d="M681.999 139.988C674.454 132.443 665.208 127.221 655.126 124.677C650.477 123.503 645.656 122.897 640.738 122.897C625.15 122.897 610.499 128.969 599.476 139.988L596.06 143.404L575.338 164.126C583.978 172.767 603.245 192.038 621.474 210.263C606.131 194.92 591.376 180.165 584.119 172.908L608.257 148.769C609.443 147.584 610.679 146.467 611.947 145.396C616.952 144.993 622.523 143.905 628.252 142.071C636.576 139.408 643.739 135.668 648.751 131.697C649.007 131.697 649.259 131.679 649.515 131.679C663.013 131.679 675.805 136.237 686.15 144.615C684.853 143.011 683.473 141.465 681.995 139.988H681.999Z" fill="white"/>
</g>
<g opacity="0.5">
<path d="M623.777 212.566C626.393 215.182 628.976 217.765 631.495 220.284C628.937 217.726 626.353 215.142 623.777 212.566Z" fill="white"/>
</g>
<g opacity="0.5">
<path d="M637.408 226.197C636.669 225.458 635.927 224.716 635.178 223.967C635.931 224.72 636.673 225.462 637.408 226.197Z" fill="white"/>
</g>
<g opacity="0.5">
<path d="M623.776 212.566C623.012 211.802 622.245 211.034 621.477 210.267C622.241 211.031 623.009 211.798 623.776 212.566Z" fill="white"/>
</g>
<path d="M47.1903 636.616C51.0833 636.616 54.2393 633.46 54.2393 629.567C54.2393 625.674 51.0833 622.518 47.1903 622.518C43.2972 622.518 40.1412 625.674 40.1412 629.567C40.1412 633.46 43.2972 636.616 47.1903 636.616Z" fill="white"/>
<path d="M663.235 598.604C667.724 598.604 671.362 594.966 671.362 590.477C671.362 585.989 667.724 582.351 663.235 582.351C658.747 582.351 655.109 585.989 655.109 590.477C655.109 594.966 658.747 598.604 663.235 598.604Z" fill="white"/>
<path d="M719.214 82.1353C722.96 82.1353 725.997 79.0986 725.997 75.3526C725.997 71.6066 722.96 68.5698 719.214 68.5698C715.468 68.5698 712.431 71.6066 712.431 75.3526C712.431 79.0986 715.468 82.1353 719.214 82.1353Z" fill="white"/>
<path d="M689.731 32.1874C691.297 30.6209 690.307 26.899 687.538 22.6821C686.714 21.429 686.714 19.8124 687.538 18.5592C690.307 14.3423 691.297 10.6205 689.731 9.054C688.164 7.48755 684.442 8.47755 680.225 11.247C678.972 12.071 677.356 12.071 676.102 11.247C671.886 8.47755 668.164 7.48755 666.597 9.054C665.031 10.6205 666.021 14.3423 668.79 18.5592C669.614 19.8124 669.614 21.429 668.79 22.6821C666.021 26.899 665.031 30.6209 666.597 32.1874C668.164 33.7538 671.886 32.7638 676.102 29.9943C677.356 29.1704 678.972 29.1704 680.225 29.9943C684.442 32.7638 688.164 33.7538 689.731 32.1874Z" fill="white"/>
<path d="M13.9156 593.855C15.7171 593.855 17.2898 591.145 18.1231 587.125C18.3706 585.932 19.3011 585.001 20.4947 584.754C24.5143 583.92 27.2242 582.348 27.2242 580.546C27.2242 578.745 24.5143 577.172 20.4947 576.339C19.3011 576.091 18.3706 575.161 18.1231 573.967C17.2898 569.948 15.7171 567.238 13.9156 567.238C12.1142 567.238 10.5415 569.948 9.70815 573.967C9.46065 575.161 8.53017 576.091 7.33654 576.339C3.31702 577.172 0.607056 578.745 0.607056 580.546C0.607056 582.348 3.31702 583.92 7.33654 584.754C8.53017 585.001 9.46065 585.932 9.70815 587.125C10.5415 591.145 12.1142 593.855 13.9156 593.855Z" fill="white"/>
<path d="M59.2333 29.8251C65.1698 29.8251 69.9823 25.0127 69.9823 19.0761C69.9823 13.1396 65.1698 8.32715 59.2333 8.32715C53.2967 8.32715 48.4843 13.1396 48.4843 19.0761C48.4843 25.0127 53.2967 29.8251 59.2333 29.8251Z" fill="white"/>
<path d="M11.1178 84.5884C14.9988 84.5884 18.1449 81.4423 18.1449 77.5613C18.1449 73.6803 14.9988 70.5342 11.1178 70.5342C7.23684 70.5342 4.0907 73.6803 4.0907 77.5613C4.0907 81.4423 7.23684 84.5884 11.1178 84.5884Z" fill="white"/>
</g>
<defs>
<clipPath id="clip0_8_107">
<rect width="725.39" height="704.675" fill="white" transform="translate(0.610229)"/>
</clipPath>
</defs>
</svg>
